<svg width="26" height="22" viewBox="0 0 26 22" fill="none" xmlns="http://www.w3.org/2000/svg">
<path d="M13 0.0625C6.0957 0.0625 0.5 4.6084 0.5 10.2188C0.5 12.6406 1.54492 14.8574 3.2832 16.6006C2.67285 19.0615 0.631836 21.2539 0.607422 21.2783C0.5 21.3906 0.470703 21.5566 0.53418 21.7031C0.597656 21.8496 0.734375 21.9375 0.890625 21.9375C4.12793 21.9375 6.55469 20.3848 7.75586 19.4277C9.35254 20.0283 11.125 20.375 13 20.375C19.9043 20.375 25.5 15.8291 25.5 10.2188C25.5 4.6084 19.9043 0.0625 13 0.0625ZM6.75 11.7812C5.88574 11.7812 5.1875 11.083 5.1875 10.2188C5.1875 9.35449 5.88574 8.65625 6.75 8.65625C7.61426 8.65625 8.3125 9.35449 8.3125 10.2188C8.3125 11.083 7.61426 11.7812 6.75 11.7812ZM13 11.7812C12.1357 11.7812 11.4375 11.083 11.4375 10.2188C11.4375 9.35449 12.1357 8.65625 13 8.65625C13.8643 8.65625 14.5625 9.35449 14.5625 10.2188C14.5625 11.083 13.8643 11.7812 13 11.7812ZM19.25 11.7812C18.3857 11.7812 17.6875 11.083 17.6875 10.2188C17.6875 9.35449 18.3857 8.65625 19.25 8.65625C20.1143 8.65625 20.8125 9.35449 20.8125 10.2188C20.8125 11.083 20.1143 11.7812 19.25 11.7812Z" fill="#F1F1F1"/>
</svg>
