<svg width="26" height="25" viewBox="0 0 26 25" fill="none" xmlns="http://www.w3.org/2000/svg">
<path d="M0.5 2.73438V14.4531C0.5 15.1003 1.02466 15.625 1.67187 15.625H5.57812C6.22534 15.625 6.75 15.1003 6.75 14.4531V2.73438C6.75 2.08716 6.22534 1.5625 5.57812 1.5625H1.67187C1.02466 1.5625 0.5 2.08716 0.5 2.73438ZM2.45312 12.5C2.45312 11.8528 2.97778 11.3281 3.625 11.3281C4.27222 11.3281 4.79687 11.8528 4.79687 12.5C4.79687 13.1472 4.27222 13.6719 3.625 13.6719C2.97778 13.6719 2.45312 13.1472 2.45312 12.5ZM15.7344 25C14.7489 25 14.2947 23.0814 14.0776 22.178C13.8234 21.1201 13.5605 20.0261 12.8377 19.3019C11.2523 17.7138 10.4206 15.6902 8.48628 13.7789C8.43124 13.7245 8.38754 13.6597 8.35772 13.5883C8.32789 13.5169 8.31254 13.4402 8.31255 13.3628V2.92485C8.31255 2.60547 8.56855 2.34487 8.88789 2.33901C9.66089 2.32485 10.6796 1.8957 11.4587 1.54907C13.0092 0.859277 14.9389 0.000830078 17.2966 0H17.4355C19.5242 0 21.9942 0.020166 22.9909 1.452C23.4006 2.04072 23.5009 2.77202 23.2911 3.6313C24.0875 4.46396 24.5148 6.01719 24.091 7.28154C24.9476 8.42568 25.0257 10.0224 24.5455 11.1619L24.5508 11.1672C25.1315 11.7507 25.5041 12.6936 25.5 13.5694C25.4924 15.0515 24.2228 16.4062 22.5921 16.4062H17.6251C17.9819 17.79 19.25 18.9518 19.25 21.0229C19.25 24.6094 16.9062 25 15.7344 25Z" fill="#F1F1F1"/>
</svg>
