<svg width="25" height="26" viewBox="0 0 25 26" fill="none" xmlns="http://www.w3.org/2000/svg">
<g clip-path="url(#clip0_47_96)">
<path d="M12.4817 0.484733C12.5291 0.484733 12.5764 0.484733 12.6253 0.485221C13.325 0.487174 14.0095 0.507193 14.6975 0.646354C14.742 0.655143 14.7869 0.66442 14.8333 0.673209C15.1482 0.737662 15.4602 0.810904 15.7718 0.890494C15.8079 0.899772 15.844 0.909049 15.8816 0.918326C17.5535 1.34899 19.1443 2.21715 20.4651 3.32262C20.491 3.3446 20.5174 3.36608 20.5437 3.38854C20.7659 3.57848 20.9759 3.76305 21.0061 4.06676C21.0066 4.10338 21.0076 4.14001 21.0081 4.17712C21.0095 4.21325 21.011 4.24938 21.012 4.28649C20.9739 4.5736 20.802 4.76549 20.6038 4.96422C20.5794 4.98864 20.555 5.01354 20.5301 5.03893C20.45 5.1195 20.3689 5.19958 20.2884 5.27965C20.2322 5.3363 20.176 5.39245 20.1199 5.4486C20.0027 5.56628 19.885 5.68346 19.7674 5.80065C19.6165 5.95055 19.4661 6.10143 19.3162 6.25231C19.2005 6.36852 19.0843 6.48424 18.9685 6.59997C18.9129 6.65563 18.8572 6.71081 18.802 6.76647C18.7249 6.8446 18.6468 6.92174 18.5691 6.99889C18.5247 7.04284 18.4807 7.08678 18.4353 7.13219C18.2532 7.28747 18.0877 7.34997 17.8499 7.35094C17.8147 7.35192 17.7796 7.3529 17.7429 7.35387C17.45 7.30895 17.2263 7.11462 16.9983 6.93932C16.1472 6.3026 15.1902 5.88122 14.1604 5.62682C14.1282 5.61901 14.0965 5.61071 14.0633 5.60241C12.3108 5.18102 10.3958 5.55212 8.83816 6.40807C8.7615 6.4486 8.7615 6.4486 8.68337 6.4901C6.99246 7.4237 5.79812 9.08922 5.23953 10.9144C5.17605 11.1356 5.12087 11.3578 5.07839 11.5839C5.0696 11.6293 5.06081 11.6747 5.05203 11.7215C4.98074 12.139 4.96072 12.5497 4.96218 12.9725C4.96218 13.0238 4.96218 13.0238 4.96218 13.0756C4.96755 14.3514 5.28689 15.5472 5.90847 16.662C5.92507 16.6932 5.94216 16.7245 5.95974 16.7562C6.20339 17.1976 6.48367 17.5829 6.82058 17.9574C6.88064 18.0248 6.93923 18.0931 6.99783 18.162C7.25906 18.4647 7.54373 18.7152 7.8616 18.9569C7.88699 18.9764 7.91238 18.9965 7.93875 19.0165C9.54665 20.2474 11.5838 20.7352 13.5867 20.4877C15.344 20.2172 17.1424 19.284 18.262 17.8827C18.283 17.8563 18.3045 17.8295 18.3264 17.8021C18.6057 17.4496 18.867 17.0907 19.0886 16.6986C19.1052 16.6693 19.1219 16.64 19.1394 16.6097C19.2449 16.4169 19.3313 16.2181 19.4153 16.015C19.4373 15.9623 19.4588 15.9095 19.4812 15.8553C19.4978 15.8153 19.5144 15.7757 19.5315 15.7342C19.5012 15.7347 19.471 15.7347 19.4397 15.7347C18.7058 15.7391 17.9719 15.7425 17.2381 15.7445C16.8831 15.7455 16.5281 15.7469 16.1731 15.7489C15.8635 15.7508 15.554 15.7523 15.2449 15.7528C15.0808 15.7528 14.9173 15.7538 14.7532 15.7552C14.5701 15.7562 14.3875 15.7567 14.2044 15.7567C14.1233 15.7577 14.1233 15.7577 14.0403 15.7587C13.7268 15.7572 13.5359 15.7264 13.2815 15.5389C13.0647 15.2997 13.0296 15.1512 13.0286 14.8368C13.0281 14.7997 13.0276 14.7626 13.0276 14.724C13.0266 14.6009 13.0261 14.4774 13.0257 14.3544C13.0252 14.3119 13.0252 14.2699 13.0247 14.2264C13.0237 14.0038 13.0232 13.7806 13.0227 13.558C13.0222 13.328 13.0203 13.0975 13.0183 12.8675C13.0174 12.6908 13.0169 12.5135 13.0169 12.3368C13.0164 12.2518 13.0159 12.1669 13.0149 12.0824C13.0139 11.9632 13.0139 11.8446 13.0144 11.7255C13.0135 11.6732 13.0135 11.6732 13.0125 11.62C13.0149 11.3739 13.0794 11.2372 13.2327 11.0467C13.4954 10.8094 13.6995 10.7953 14.0427 10.7958C14.1077 10.7958 14.1077 10.7958 14.1741 10.7953C14.3201 10.7948 14.4661 10.7948 14.6121 10.7948C14.7166 10.7948 14.8211 10.7943 14.9256 10.7943C15.2097 10.7933 15.4934 10.7933 15.7776 10.7928C15.9553 10.7928 16.1326 10.7928 16.3098 10.7923C16.8645 10.7919 17.4197 10.7914 17.9744 10.7909C18.615 10.7909 19.2561 10.7899 19.8972 10.7884C20.3919 10.7875 20.887 10.787 21.3821 10.787C21.678 10.787 21.9739 10.7865 22.2698 10.7855C22.5481 10.785 22.8264 10.785 23.1048 10.785C23.2068 10.7855 23.3089 10.785 23.4109 10.7845C23.5506 10.784 23.6897 10.784 23.8294 10.785C23.8699 10.7845 23.9099 10.784 23.9519 10.7836C24.2512 10.786 24.4983 10.8592 24.7161 11.0775C24.8538 11.2562 24.8972 11.4369 24.9343 11.6551C24.9402 11.6913 24.9466 11.7274 24.9529 11.7645C25.0252 12.2255 25.0222 12.6869 25.0183 13.1527C25.0178 13.222 25.0178 13.222 25.0178 13.2928C25.0135 13.9847 24.9934 14.6634 24.8538 15.3436C24.8391 15.4154 24.8391 15.4154 24.824 15.4886C24.428 17.3817 23.6682 19.1468 22.4612 20.6659C22.4265 20.7098 22.3924 20.7533 22.3567 20.7987C22.0667 21.161 21.7542 21.5008 21.4358 21.8378C21.4046 21.871 21.3733 21.9042 21.3411 21.9388C21.1409 22.1459 20.9212 22.326 20.6966 22.5062C20.6077 22.578 20.5203 22.6503 20.4339 22.724C18.8152 24.099 16.7757 24.9803 14.6975 25.3534C14.6565 25.3612 14.616 25.3695 14.5745 25.3773C13.2205 25.6361 11.6536 25.6171 10.303 25.3534C10.2591 25.3456 10.2151 25.3378 10.1702 25.3295C7.20925 24.7938 4.31082 23.0756 2.53933 20.6171C2.51541 20.5848 2.49148 20.5526 2.46707 20.5194C0.858178 18.3202 -0.0236572 15.7699 -0.0182862 13.0365C-0.0182862 12.9872 -0.0182862 12.9379 -0.0182862 12.8871C-0.016333 12.0795 0.0285891 11.3021 0.195581 10.5096C0.205835 10.4593 0.216089 10.409 0.226831 10.3573C0.639917 8.43493 1.51003 6.67077 2.73464 5.13854C2.77322 5.08971 2.81228 5.0404 2.85232 4.9901C3.40603 4.31383 4.03298 3.65856 4.7366 3.13659C4.76785 3.11315 4.79958 3.08922 4.8323 3.06481C5.32009 2.69958 5.81619 2.3612 6.34792 2.06237C6.3782 2.04479 6.40896 2.02721 6.44021 2.00915C7.71169 1.28161 9.14822 0.810416 10.596 0.597525C10.6546 0.589225 10.7132 0.580436 10.7742 0.571647C11.343 0.493522 11.908 0.482291 12.4817 0.484733Z" fill="#157DE6"/>
<path d="M12.4817 0.484733C12.5291 0.484733 12.5764 0.484733 12.6253 0.485221C13.325 0.487174 14.0095 0.507193 14.6975 0.646354C14.742 0.655143 14.7869 0.66442 14.8333 0.673209C15.1482 0.737662 15.4602 0.810904 15.7718 0.890494C15.8079 0.899772 15.844 0.909049 15.8816 0.918326C17.5535 1.34899 19.1443 2.21715 20.4651 3.32262C20.491 3.3446 20.5174 3.36608 20.5437 3.38854C20.7659 3.57848 20.9759 3.76305 21.0061 4.06676C21.0066 4.10338 21.0076 4.14001 21.0081 4.17712C21.0095 4.21325 21.011 4.24938 21.012 4.28649C20.9739 4.5736 20.802 4.76549 20.6038 4.96422C20.5794 4.98864 20.555 5.01354 20.5301 5.03893C20.45 5.1195 20.3689 5.19958 20.2884 5.27965C20.2322 5.33629 20.1761 5.39245 20.1199 5.4486C20.0027 5.56628 19.885 5.68346 19.7674 5.80065C19.6165 5.95055 19.4661 6.10143 19.3162 6.25231C19.2005 6.36852 19.0843 6.48424 18.9685 6.59997C18.9129 6.65563 18.8572 6.71081 18.802 6.76647C18.7249 6.84459 18.6468 6.92174 18.5691 6.99889C18.5247 7.04284 18.4807 7.08678 18.4353 7.13219C18.2532 7.28747 18.0877 7.34997 17.8499 7.35094C17.8147 7.35192 17.7796 7.3529 17.7429 7.35387C17.45 7.30895 17.2263 7.11461 16.9983 6.93932C16.1472 6.3026 15.1902 5.88122 14.1604 5.62682C14.1282 5.61901 14.0965 5.61071 14.0633 5.60241C12.3108 5.18102 10.3958 5.55211 8.83816 6.40807C8.7615 6.4486 8.7615 6.4486 8.68338 6.4901C6.99246 7.4237 5.79812 9.08922 5.23953 10.9144C5.17605 11.1356 5.12088 11.3578 5.0784 11.5839C5.06961 11.6293 5.06082 11.6747 5.05203 11.7215C4.98074 12.139 4.96072 12.5497 4.96218 12.9725C4.96218 13.0238 4.96218 13.0238 4.96218 13.0756C4.96756 14.2948 5.25564 15.4359 5.82986 16.5131C5.90847 16.662 5.90847 16.662 5.9573 16.8085C5.90408 16.8387 5.90408 16.8387 5.85037 16.8695C5.23318 17.2211 4.61648 17.5726 4.00418 17.9315C3.40115 18.2845 2.79519 18.6312 2.18777 18.9764C2.10476 19.0238 2.02175 19.0716 1.93924 19.1205C1.71853 19.2499 1.71853 19.2499 1.6116 19.2499C0.516873 17.3495 -0.0226785 15.222 -0.0182839 13.0365C-0.0182839 12.9872 -0.0182839 12.9379 -0.0182839 12.8871C-0.0163308 12.0795 0.0285913 11.3021 0.195584 10.5096C0.205837 10.4593 0.216091 10.409 0.226833 10.3573C0.639919 8.43493 1.51004 6.67077 2.73465 5.13854C2.77322 5.08971 2.81228 5.0404 2.85232 4.9901C3.40603 4.31383 4.03299 3.65856 4.7366 3.13659C4.76785 3.11315 4.79959 3.08922 4.8323 3.06481C5.32009 2.69958 5.81619 2.3612 6.34793 2.06237C6.3782 2.04479 6.40896 2.02721 6.44021 2.00915C7.7117 1.28161 9.14822 0.810416 10.596 0.597525C10.6546 0.589225 10.7132 0.580436 10.7742 0.571647C11.343 0.493522 11.908 0.482291 12.4817 0.484733Z" fill="#FF4B25"/>
<path d="M5.85938 16.8086C6.04736 16.8809 6.11035 16.9756 6.21045 17.1475C6.39453 17.4482 6.60596 17.7139 6.83594 17.9805C6.875 18.0259 6.91357 18.0713 6.95361 18.1182C7.23145 18.4341 7.52637 18.7031 7.86133 18.957C7.88672 18.9766 7.91211 18.9961 7.93848 19.0161C9.54639 20.2471 11.5835 20.7349 13.5869 20.4878C14.4385 20.3569 15.2539 20.0747 16.0132 19.6699C16.1621 19.5918 16.1621 19.5918 16.3086 19.543C16.8169 20.4121 17.3213 21.2837 17.8232 22.1562C17.8897 22.271 17.9561 22.3862 18.0225 22.5015C18.0845 22.6089 18.146 22.7163 18.208 22.8242C18.2363 22.8735 18.2646 22.9224 18.2939 22.9731C18.3208 23.02 18.3481 23.0674 18.376 23.1157C18.48 23.293 18.5884 23.4678 18.6978 23.6416C18.75 23.7422 18.75 23.7422 18.75 23.8887C17.3989 24.6455 15.9395 25.1768 14.4043 25.4023C14.3457 25.4111 14.2866 25.4194 14.2261 25.4287C13.6567 25.5068 13.0923 25.5176 12.5186 25.5151C12.4712 25.5151 12.4238 25.5151 12.375 25.5151C11.6738 25.5127 10.9922 25.4883 10.3027 25.3535C10.2588 25.3457 10.2153 25.3379 10.1699 25.3296C7.21191 24.7944 4.30762 23.0762 2.53906 20.6172C2.51465 20.5835 2.49023 20.5498 2.46484 20.5151C2.17871 20.1206 1.89893 19.7246 1.66016 19.2988C1.78174 19.1621 1.9165 19.0825 2.0752 18.9927C2.12988 18.9619 2.18457 18.9307 2.24121 18.8989C2.27002 18.8828 2.29932 18.8662 2.3291 18.8491C2.45312 18.7798 2.57666 18.71 2.69971 18.6396C2.76367 18.6035 2.82764 18.5674 2.8916 18.5312C3.2002 18.3564 3.50781 18.1792 3.81445 18.002C3.91797 17.9419 4.02148 17.8823 4.125 17.8228C4.17676 17.793 4.22803 17.7627 4.28125 17.7324C4.4541 17.6323 4.62695 17.5327 4.7998 17.4336C4.8877 17.3828 4.97559 17.3325 5.06299 17.2817C5.14648 17.2339 5.22998 17.186 5.31299 17.1382C5.36328 17.1089 5.41357 17.0801 5.46533 17.0503C5.50977 17.0249 5.5542 16.999 5.6001 16.9731C5.68799 16.9209 5.77441 16.8652 5.85938 16.8086Z" fill="#11AA44"/>
<path d="M1.61135 6.75C1.78421 6.81543 1.94387 6.89209 2.10501 6.98291C2.15335 7.00977 2.20169 7.03662 2.25149 7.06445C2.30276 7.09375 2.35452 7.12256 2.40774 7.15283C2.46194 7.18311 2.51614 7.21387 2.57229 7.24512C2.98196 7.47656 3.38919 7.7124 3.79544 7.9502C4.18997 8.18164 4.58645 8.40918 4.98343 8.63574C5.01272 8.65283 5.04202 8.66943 5.07229 8.68652C5.20755 8.76367 5.3428 8.84082 5.47757 8.91797C5.63772 9.00879 5.79739 9.1001 5.95706 9.19141C5.92923 9.24658 5.90139 9.30176 5.87307 9.3584C4.92532 11.2744 4.6719 13.3335 5.3345 15.3867C5.4678 15.7788 5.63528 16.1475 5.8301 16.5132C5.90823 16.6621 5.90823 16.6621 5.95706 16.8086C5.90432 16.8389 5.90432 16.8389 5.85012 16.8696C5.23343 17.2207 4.61673 17.5728 4.00393 17.9316C3.40139 18.2847 2.79495 18.6313 2.18801 18.9766C2.10452 19.0239 2.02151 19.0718 1.93899 19.1206C1.71878 19.25 1.71878 19.25 1.61135 19.25C0.516628 17.3496 -0.0229226 15.2222 -0.0185281 13.0366C-0.0180398 12.9873 -0.0180397 12.938 -0.0180397 12.8867C-0.0160866 12.0796 0.028347 11.3022 0.195339 10.5098C0.205593 10.4595 0.216335 10.4092 0.227077 10.3574C0.496609 9.10107 0.961452 7.86084 1.61135 6.75Z" fill="#FED400"/>
<path d="M12.5 0.5C13.7485 0.5 13.7485 0.5 14.1357 0.558105C14.2041 0.567383 14.2041 0.567383 14.2744 0.577637C14.7798 0.652344 15.2764 0.763672 15.7715 0.890625C15.8076 0.899902 15.8442 0.90918 15.8813 0.918457C17.5537 1.34863 19.1445 2.21729 20.4648 3.32275C20.4912 3.34473 20.5171 3.36621 20.5439 3.38867C20.7656 3.57812 20.9761 3.7627 21.0059 4.06689C21.0073 4.12158 21.0073 4.12158 21.0083 4.17725C21.0103 4.23145 21.0103 4.23145 21.0122 4.28662C20.9736 4.57373 20.8018 4.76562 20.604 4.96387C20.5796 4.98877 20.5552 5.01318 20.5298 5.03857C20.4497 5.11963 20.3691 5.19971 20.2886 5.27979C20.2324 5.33594 20.1763 5.39258 20.1201 5.44873C20.0024 5.56641 19.8853 5.68359 19.7671 5.80078C19.6162 5.95068 19.4663 6.10156 19.3164 6.25244C19.2007 6.36865 19.0845 6.48438 18.9683 6.6001C18.9126 6.65576 18.8574 6.71094 18.8022 6.7666C18.7246 6.84424 18.647 6.92188 18.5688 6.99854C18.5029 7.06494 18.5029 7.06494 18.4355 7.13232C18.2529 7.28711 18.0879 7.3501 17.8496 7.35107C17.8145 7.35205 17.7793 7.35303 17.7432 7.35352C17.4497 7.30908 17.2266 7.11475 16.998 6.93945C16.0308 6.21533 14.9077 5.74756 13.7178 5.5415C13.6694 5.5332 13.6694 5.5332 13.6201 5.52441C13.2466 5.46533 12.8813 5.45557 12.5 5.43164C12.5 3.8042 12.5 2.17676 12.5 0.5Z" fill="#D93F21"/>
</g>
<defs>
<clipPath id="clip0_47_96">
<rect width="25" height="25" fill="white" transform="translate(0 0.5)"/>
</clipPath>
</defs>
</svg>
