<svg width="25" height="21" viewBox="0 0 25 21" fill="none" xmlns="http://www.w3.org/2000/svg">
<path d="M12.1695 5.82264L4.16732 12.4134V19.5266C4.16732 19.7108 4.24048 19.8875 4.37072 20.0177C4.50095 20.1479 4.67758 20.2211 4.86176 20.2211L9.72548 20.2085C9.90905 20.2076 10.0848 20.134 10.2143 20.0039C10.3438 19.8737 10.4165 19.6976 10.4164 19.5141V15.36C10.4164 15.1758 10.4896 14.9992 10.6198 14.8689C10.7501 14.7387 10.9267 14.6655 11.1109 14.6655H13.8887C14.0728 14.6655 14.2495 14.7387 14.3797 14.8689C14.51 14.9992 14.5831 15.1758 14.5831 15.36V19.511C14.5828 19.6024 14.6006 19.6929 14.6354 19.7774C14.6701 19.8619 14.7212 19.9387 14.7857 20.0035C14.8503 20.0682 14.9269 20.1195 15.0113 20.1546C15.0957 20.1896 15.1862 20.2076 15.2776 20.2076L20.1395 20.2211C20.3237 20.2211 20.5004 20.1479 20.6306 20.0177C20.7608 19.8875 20.834 19.7108 20.834 19.5266V12.4086L12.8335 5.82264C12.7395 5.74683 12.6223 5.70549 12.5015 5.70549C12.3807 5.70549 12.2635 5.74683 12.1695 5.82264ZM24.8097 10.3022L21.1812 7.31136V1.29964C21.1812 1.16151 21.1263 1.02903 21.0287 0.931357C20.931 0.833682 20.7985 0.778809 20.6604 0.778809H18.2298C18.0917 0.778809 17.9592 0.833682 17.8615 0.931357C17.7639 1.02903 17.709 1.16151 17.709 1.29964V4.45112L13.8231 1.25407C13.4502 0.947202 12.9823 0.779422 12.4993 0.779422C12.0164 0.779422 11.5485 0.947202 11.1756 1.25407L0.189019 10.3022C0.136279 10.3458 0.0926449 10.3994 0.0606102 10.4599C0.0285755 10.5203 0.00876769 10.5865 0.00231864 10.6546C-0.0041304 10.7227 0.00290567 10.7915 0.0230248 10.8568C0.043144 10.9222 0.0759519 10.983 0.119574 11.0358L1.22634 12.3812C1.26985 12.4341 1.32336 12.4779 1.38381 12.5101C1.44426 12.5423 1.51047 12.5623 1.57864 12.5688C1.64681 12.5754 1.71561 12.5685 1.7811 12.5484C1.84659 12.5284 1.90748 12.4956 1.96029 12.452L12.1695 4.04313C12.2635 3.96732 12.3807 3.92597 12.5015 3.92597C12.6223 3.92597 12.7395 3.96732 12.8335 4.04313L23.0432 12.452C23.0959 12.4956 23.1567 12.5284 23.2221 12.5485C23.2875 12.5687 23.3562 12.5757 23.4243 12.5692C23.4924 12.5628 23.5586 12.543 23.6191 12.5109C23.6795 12.4789 23.7331 12.4353 23.7767 12.3825L24.8835 11.0371C24.927 10.984 24.9597 10.9229 24.9796 10.8572C24.9995 10.7916 25.0062 10.7226 24.9993 10.6543C24.9925 10.586 24.9722 10.5198 24.9396 10.4594C24.9071 10.3989 24.8629 10.3455 24.8097 10.3022Z" fill="white"/>
</svg>
