<svg width="26" height="26" viewBox="0 0 26 26" fill="none" xmlns="http://www.w3.org/2000/svg">
<path d="M5.57812 11.4375H1.67187C1.02466 11.4375 0.5 11.9622 0.5 12.6094V24.3281C0.5 24.9753 1.02466 25.5 1.67187 25.5H5.57812C6.22534 25.5 6.75 24.9753 6.75 24.3281V12.6094C6.75 11.9622 6.22534 11.4375 5.57812 11.4375ZM3.625 23.5469C2.97778 23.5469 2.45312 23.0222 2.45312 22.375C2.45312 21.7278 2.97778 21.2031 3.625 21.2031C4.27222 21.2031 4.79687 21.7278 4.79687 22.375C4.79687 23.0222 4.27222 23.5469 3.625 23.5469ZM19.25 4.47715C19.25 6.54824 17.9819 7.70996 17.6251 9.09375H22.5921C24.2228 9.09375 25.4923 10.4485 25.4999 11.9306C25.5041 12.8064 25.1315 13.7494 24.5508 14.3328L24.5454 14.3381C25.0257 15.4776 24.9476 17.0743 24.0909 18.2185C24.5148 19.4829 24.0875 21.036 23.291 21.8687C23.5009 22.728 23.4006 23.4593 22.9908 24.048C21.9942 25.4798 19.5242 25.5 17.4355 25.5L17.2966 25.5C14.9388 25.4991 13.0092 24.6407 11.4587 23.9509C10.6795 23.6042 9.66079 23.1751 8.88784 23.1609C8.56851 23.1551 8.3125 22.8945 8.3125 22.5751V12.1371C8.3125 11.9809 8.3751 11.8309 8.48623 11.721C10.4205 9.80972 11.2522 7.78613 12.8376 6.19805C13.5605 5.47383 13.8234 4.37988 14.0775 3.32197C14.2947 2.4186 14.7489 0.5 15.7344 0.5C16.9062 0.5 19.25 0.890625 19.25 4.47715Z" fill="#F1F1F1"/>
</svg>
